<svg width="24" height="24" viewBox="0 0 24 24" fill="none" xmlns="http://www.w3.org/2000/svg">
<path d="M20.5 10H19V8C19 6.89543 18.1046 6 17 6H7C5.89543 6 5 6.89543 5 8V10H3.5C2.67157 10 2 10.6716 2 11.5V14.5C2 15.3284 2.67157 16 3.5 16H4V18C4 18.5523 4.44772 19 5 19H6C6.55228 19 7 18.5523 7 18V17H17V18C17 18.5523 17.4477 19 18 19H19C19.5523 19 20 18.5523 20 18V16H20.5C21.3284 16 22 15.3284 22 14.5V11.5C22 10.6716 21.3284 10 20.5 10ZM7 8H17V10H7V8Z" fill="#F0B400"/>
<circle cx="6" cy="17" r="1" fill="#FFD700"/>
<circle cx="18" cy="17" r="1" fill="#FFD700"/>
</svg>